<svg xmlns="http://www.w3.org/2000/svg" width="430" height="430" fill="none" viewBox="0 0 430 430"><mask id="5mdUIcEUHba" width="245" height="406" x="95" y="9" maskUnits="userSpaceOnUse" style="mask-type:alpha"><path fill="#D9D9D9" d="M340 9.856H95v59.659l245 245zm0 321.629-245-245V415h245z"/></mask><g stroke-width="12" mask="url(#5mdUIcEUHba)"><path stroke="#08a88a" stroke-miterlimit="16" d="M285 100.173v149.654C285 288.613 253.69 320 215 320s-70-31.387-70-70.173V100.173C145 61.387 176.31 30 215 30s70 31.387 70 70.173Z"/><path stroke="#121331" stroke-linecap="round" stroke-linejoin="round" d="M215 350v50m35 0h-70m-70-180v25c0 57.99 47.01 105 105 105v0c57.99 0 105-47.01 105-105v-25"/><path stroke="#08a88a" stroke-linecap="round" d="M145 250h139.768"/><path stroke="#08a88a" stroke-linecap="round" stroke-linejoin="round" d="M215 250v70m70-105h-29.5m-81 0H145m19.5-30H145m139.5 0H265"/></g><path stroke="#121331" stroke-linecap="round" stroke-linejoin="round" stroke-miterlimit="16" stroke-width="12" d="m60 60 310 310"/></svg>